HIERARCHY
ROOT Pelvis
{
	OFFSET 0.000000 0.000000 0.000000
	CHANNELS 6 Xposition Yposition Zposition Xrotation Yrotation Zrotation
	JOINT LeftUpLeg_virtual
	{
		OFFSET 0.000000 0.000000 0.000000
		CHANNELS 3 Xrotation Yrotation Zrotation
		JOINT LeftUpLeg
		{
			OFFSET 18.735201 -5.666702 -4.541200
			CHANNELS 3 Xrotation Yrotation Zrotation
			JOINT LeftLeg
			{
				OFFSET -0.021200 -31.938179 0.493100
				CHANNELS 3 Xrotation Yrotation Zrotation
				JOINT LeftFoot
				{
					OFFSET 0.021200 -31.938179 -4.336299
					CHANNELS 3 Xrotation Yrotation Zrotation
					JOINT LeftToeBase
					{
						OFFSET 0.943001 -26.722000 15.023500
						CHANNELS 3 Xrotation Yrotation Zrotation
						End Site
						{
							OFFSET 0 0 0
						}
					}
				}
			}
		}
	}
	JOINT RightUpLeg_virtual
	{
		OFFSET 0.000000 0.000000 0.000000
		CHANNELS 3 Xrotation Yrotation Zrotation
		JOINT RightUpLeg
		{
			OFFSET -18.735201 -5.666702 -4.541200
			CHANNELS 3 Xrotation Yrotation Zrotation
			JOINT RightLeg
			{
				OFFSET 0.018946 -31.938133 0.493100
				CHANNELS 3 Xrotation Yrotation Zrotation
				JOINT RightFoot
				{
					OFFSET -0.018946 -31.938126 -4.336299
					CHANNELS 3 Xrotation Yrotation Zrotation
					JOINT RightToeBase
					{
						OFFSET -0.943001 -26.722004 15.023500
						CHANNELS 3 Xrotation Yrotation Zrotation
						End Site
						{
							OFFSET 0 0 0
						}
					}
				}
			}
		}
	}
	JOINT Hips_virtual
	{
		OFFSET 0.000000 0.000000 0.000000
		CHANNELS 3 Xrotation Yrotation Zrotation
		JOINT Hips
		{
			OFFSET -0.000000 -0.000000 -0.000000
			CHANNELS 3 Xrotation Yrotation Zrotation
			JOINT Spine
			{
				OFFSET 0.000000 10.199997 -0.299500
				CHANNELS 3 Xrotation Yrotation Zrotation
				JOINT Spine1
				{
					OFFSET 0.000000 11.900002 -1.516600
					CHANNELS 3 Xrotation Yrotation Zrotation
					JOINT Spine2
					{
						OFFSET 0.000000 13.600006 -2.842500
						CHANNELS 3 Xrotation Yrotation Zrotation
						JOINT Neck_virtual
						{
							OFFSET 0.000000 0.000000 0.000000
							CHANNELS 3 Xrotation Yrotation Zrotation
							JOINT Neck
							{
								OFFSET 0.000000 9.624100 -2.890100
								CHANNELS 3 Xrotation Yrotation Zrotation
								JOINT Head
								{
									OFFSET 0.000000 14.068802 -1.351900
									CHANNELS 3 Xrotation Yrotation Zrotation
									End Site
									{
										OFFSET 0 0 0
									}
								}
							}
						}
						JOINT LeftShoulder_virtual
						{
							OFFSET 0.000000 0.000000 0.000000
							CHANNELS 3 Xrotation Yrotation Zrotation
							JOINT LeftShoulder
							{
								OFFSET 15.263000 10.923401 -0.547700
								CHANNELS 3 Xrotation Yrotation Zrotation
								JOINT LeftArm
								{
									OFFSET 25.438599 -2.830597 -13.032500
									CHANNELS 3 Xrotation Yrotation Zrotation
									JOINT LeftForeArm
									{
										OFFSET 29.960503 0.000000 0.000000
										CHANNELS 3 Xrotation Yrotation Zrotation
										JOINT LeftHand
										{
											OFFSET 27.849251 0.000000 0.000000
											CHANNELS 3 Xrotation Yrotation Zrotation
											End Site
											{
												OFFSET 0 0 0
											}
										}
									}
								}
							}
						}
						JOINT RightShoulder_virtual
						{
							OFFSET 0.000000 0.000000 0.000000
							CHANNELS 3 Xrotation Yrotation Zrotation
							JOINT RightShoulder
							{
								OFFSET -15.263000 10.923401 -0.547700
								CHANNELS 3 Xrotation Yrotation Zrotation
								JOINT RightArm
								{
									OFFSET -25.438599 -2.830597 -13.032500
									CHANNELS 3 Xrotation Yrotation Zrotation
									JOINT RightForeArm
									{
										OFFSET -29.960503 0.000000 0.000000
										CHANNELS 3 Xrotation Yrotation Zrotation
										JOINT RightHand
										{
											OFFSET -27.849251 0.000000 0.000000
											CHANNELS 3 Xrotation Yrotation Zrotation
											End Site
											{
												OFFSET 0 0 0
											}
										}
									}
								}
							}
						}
					}
				}
			}
		}
	}
}
MOTION
Frames: 12
Frame Time: 0.03333333
55.967289 81.755676 228.621582 0.000000 0.000000 0.000000 2.097985 3.836053 -12.871473 2.844830 5.280483 -1.301513 51.115169 5.818115 4.402813 -1.345882 6.802530 1.435712 0.000000 0.000000 0.000000 3.476850 5.877228 -14.018965 -42.190133 5.638181 -7.790353 27.378038 17.209097 -1.823078 13.386585 7.060522 10.152874 0.000000 0.000000 0.000000 1.568670 4.280748 -13.198345 -0.517764 0.382005 0.030600 4.288323 -2.168583 -10.159450 -1.612908 -1.397992 0.216171 0.000000 0.000000 0.000000 -1.537879 -4.498016 0.944314 2.010153 0.657590 1.268214 0.000000 0.000000 0.000000 -2.335994 -4.812691 -1.159348 3.196607 8.031547 -13.359177 29.126433 -29.731414 -39.924484 165.854574 -81.613766 169.690558 0.000000 0.000000 0.000000 -5.238756 -3.707538 1.682047 5.219354 7.000165 9.745570 36.751001 20.732240 57.944572 106.862838 66.920506 -118.109325 0.000000 0.000000 0.000000 
60.256912 82.725143 237.307327 0.000000 0.000000 0.000000 -0.611912 6.641451 -14.122474 -17.611062 4.791897 4.719962 72.505989 4.571376 2.350583 -8.926764 2.650039 -0.139236 0.000000 0.000000 0.000000 0.441224 8.630309 -15.585628 -34.218551 -0.108506 -5.636096 40.298451 13.738485 -4.936238 -11.600324 4.551512 7.306985 0.000000 0.000000 0.000000 -0.728704 7.074076 -13.940406 -0.514150 0.323001 0.095742 6.237256 -0.125104 -9.098357 -0.502591 0.091951 0.632535 0.000000 0.000000 0.000000 -0.825108 -2.586605 0.616386 2.457723 0.028753 0.549131 0.000000 0.000000 0.000000 -1.723334 -2.742662 -0.224412 3.196630 7.716977 -11.913609 33.738139 -32.416494 -48.035836 15.993556 -78.478464 17.867029 0.000000 0.000000 0.000000 -4.877264 -1.689498 2.086925 4.812721 9.215799 14.343647 21.821729 24.328364 57.451904 99.082556 70.486398 -108.922051 0.000000 0.000000 0.000000 
63.235287 84.201027 243.257462 0.000000 0.000000 0.000000 -3.514446 9.391575 -15.477256 -40.087794 3.222822 10.234898 87.473099 4.714728 -0.990291 -12.492141 1.496263 5.328273 0.000000 0.000000 0.000000 -3.231627 10.973237 -17.083379 -27.397540 -6.121915 -4.245792 48.559851 12.671842 -6.192009 -25.922255 5.834128 8.071551 0.000000 0.000000 0.000000 -3.610496 9.664786 -15.153379 -0.571687 0.299585 0.186114 8.563719 1.750791 -7.079188 0.497423 0.905064 0.920926 0.000000 0.000000 0.000000 -0.585057 -1.361025 0.422137 2.734113 -0.448593 -0.256433 0.000000 0.000000 0.000000 -1.017948 -1.365408 0.895744 2.863448 7.498985 -9.515269 35.473062 -32.886668 -55.730935 11.930733 -66.448656 12.791861 0.000000 0.000000 0.000000 -4.668817 -0.532835 2.164748 4.628406 10.612755 17.631068 7.466928 26.572477 56.841780 100.595675 72.782830 -108.716647 0.000000 0.000000 0.000000 
64.940178 85.288910 247.350311 0.000000 0.000000 0.000000 -5.637756 11.991503 -16.615335 -58.855897 1.795429 14.117051 94.730544 6.498579 -5.220329 -9.793577 4.464668 16.294567 0.000000 0.000000 0.000000 -6.362032 12.884662 -18.062854 -21.984224 -10.900164 -3.915363 51.736405 14.992805 -6.458357 -24.925508 10.465193 11.204736 0.000000 0.000000 0.000000 -6.055133 12.285207 -16.338798 -0.640363 0.262087 0.209222 10.677738 3.105290 -4.185316 1.305196 0.795782 1.041422 0.000000 0.000000 0.000000 -0.758193 -1.070017 0.339068 2.821492 -0.798868 -0.996249 0.000000 0.000000 0.000000 -0.233049 -0.992751 1.806769 2.370697 7.493500 -7.183613 35.325612 -31.266673 -61.921245 13.594003 -63.072972 14.373833 0.000000 0.000000 0.000000 -4.419209 -0.425264 1.798381 4.957443 10.838141 18.652755 -3.726111 27.670985 56.492908 107.605081 73.897210 -113.996479 0.000000 0.000000 0.000000 
65.625710 85.492432 249.209610 0.000000 0.000000 0.000000 -6.329502 14.309711 -17.208411 -69.436174 0.631153 15.543292 95.995536 8.807386 -8.170510 -6.484346 9.866308 27.784395 0.000000 0.000000 0.000000 -8.301638 14.642635 -17.931898 -17.750154 -13.449410 -4.311394 50.863039 18.203854 -5.826749 -17.575824 15.777481 11.191017 0.000000 0.000000 0.000000 -7.117800 14.608742 -16.985466 -0.727987 0.237802 0.149556 12.429132 3.803403 -0.996369 1.813905 0.017157 0.806853 0.000000 0.000000 0.000000 -1.107483 -1.573789 0.225751 2.744124 -1.002259 -1.548510 0.000000 0.000000 0.000000 0.520683 -1.532495 2.191018 1.929125 7.469016 -6.074773 33.643910 -28.683366 -66.139317 16.924850 -65.168515 18.331150 0.000000 0.000000 0.000000 -4.001744 -1.147412 1.002897 5.775446 9.968154 17.504578 -11.005143 28.259834 57.325074 110.490126 74.252626 -115.597127 0.000000 0.000000 0.000000 
65.429382 84.541054 249.854034 0.000000 0.000000 0.000000 -5.894067 15.553130 -17.059361 -71.215555 -0.469226 14.356769 93.069141 10.808131 -8.872720 -4.377265 14.677223 35.183278 0.000000 0.000000 0.000000 -8.766988 15.974730 -16.668435 -13.953170 -12.109894 -5.050711 48.094039 20.865091 -4.937147 -13.420999 19.057389 7.774783 0.000000 0.000000 0.000000 -6.593377 16.345720 -16.869268 -0.783484 0.194794 0.058948 13.490926 4.182927 1.529242 1.961410 -0.908197 0.265595 0.000000 0.000000 0.000000 -1.422907 -2.424677 -0.023547 2.508235 -1.113277 -1.892602 0.000000 0.000000 0.000000 1.184737 -2.432401 2.132921 1.632469 7.614963 -6.445977 31.346296 -27.236378 -68.136765 19.940628 -67.926450 22.229622 0.000000 0.000000 0.000000 -3.291936 -2.105384 -0.051393 6.642570 8.495316 15.124800 -14.546006 28.407523 59.420405 105.149260 74.322294 -109.475638 0.000000 0.000000 0.000000 
65.179947 83.246475 249.846481 0.000000 0.000000 0.000000 -4.923380 15.745022 -16.269302 -66.926182 -0.065913 12.650563 87.099658 11.533245 -8.543909 -1.826011 17.202494 35.426979 0.000000 0.000000 0.000000 -7.994526 16.302381 -14.921877 -11.952369 -8.275971 -5.940125 46.520808 22.113810 -4.256641 -15.917981 20.154765 4.663266 0.000000 0.000000 0.000000 -5.307069 17.293656 -15.907439 -0.811813 0.138230 -0.007812 13.969627 4.405298 2.701499 2.016523 -1.441362 -0.378290 0.000000 0.000000 0.000000 -1.534589 -3.055600 -0.309588 2.162954 -1.191677 -2.010039 0.000000 0.000000 0.000000 1.605712 -3.139410 1.894458 1.442066 8.084015 -8.212281 28.749926 -28.194027 -68.430948 19.810793 -67.978878 22.841706 0.000000 0.000000 0.000000 -2.326888 -2.721979 -1.014566 7.153197 7.129592 12.844633 -15.194806 28.426291 61.814523 96.020521 73.738606 -100.067817 0.000000 0.000000 0.000000 
65.038063 82.396828 248.900009 0.000000 0.000000 0.000000 -4.373749 15.235806 -15.056585 -61.508319 1.942679 11.758035 80.774398 10.445409 -8.989570 2.908192 17.803342 29.868103 0.000000 0.000000 0.000000 -6.740023 15.608581 -13.298856 -12.685149 -5.361829 -7.071566 47.332856 21.550657 -3.511412 -21.973262 19.691913 4.146881 0.000000 0.000000 0.000000 -4.093034 17.237227 -14.471398 -0.842423 0.064719 0.008419 14.248578 4.661153 2.322084 2.068459 -1.225009 -1.022302 0.000000 0.000000 0.000000 -1.424411 -3.049201 -0.484519 1.669094 -1.218832 -1.933922 0.000000 0.000000 0.000000 1.813349 -3.183581 1.697157 1.213473 8.733199 -10.353366 27.013699 -31.133088 -67.185374 16.824803 -65.553594 20.289593 0.000000 0.000000 0.000000 -1.336568 -2.637068 -1.677929 7.104550 6.368687 11.729399 -13.786413 28.203103 62.651898 93.192481 72.604160 -97.146812 0.000000 0.000000 0.000000 
64.964943 81.973557 247.904236 0.000000 0.000000 0.000000 -4.518954 13.815145 -13.756770 -59.096101 4.063684 10.866594 78.626733 8.773603 -11.232528 10.423205 18.096574 22.720945 0.000000 0.000000 0.000000 -5.633429 14.373957 -12.375099 -14.891513 -3.803584 -7.778843 49.314123 20.516865 -2.922851 -25.439197 18.634836 5.482050 0.000000 0.000000 0.000000 -3.494170 16.191138 -13.110429 -0.851608 -0.011228 0.068001 14.503748 5.022019 0.838717 2.301765 -0.318328 -1.427407 0.000000 0.000000 0.000000 -1.074394 -2.247834 -0.429358 1.016939 -1.249174 -1.739226 0.000000 0.000000 0.000000 2.088115 -2.451675 1.658954 0.887670 9.514627 -11.909508 27.161844 -35.655930 -64.206305 13.993978 -62.208195 17.482112 0.000000 0.000000 0.000000 -0.331668 -1.764722 -1.945946 6.565184 6.250015 12.137924 -10.494025 27.448502 60.773097 99.852318 71.398324 -103.613963 0.000000 0.000000 0.000000 
65.176216 82.031807 246.868958 0.000000 0.000000 0.000000 -4.967961 12.212352 -12.633116 -59.169731 4.759079 8.956423 81.592463 6.996510 -13.477585 14.395699 17.322466 17.997950 0.000000 0.000000 0.000000 -5.482297 12.922820 -12.016092 -16.507761 -0.828559 -6.995493 51.144969 19.887445 -3.173376 -25.125836 17.393439 7.193462 0.000000 0.000000 0.000000 -3.906468 14.645918 -12.110958 -0.882479 -0.042369 0.147547 14.959421 5.396248 -0.870689 2.726981 0.963348 -1.462378 0.000000 0.000000 0.000000 -0.629516 -0.803299 -0.129382 0.264389 -1.308018 -1.512038 0.000000 0.000000 0.000000 2.527088 -1.171222 1.652268 0.491339 10.147880 -12.814246 28.915042 -41.222620 -59.542147 12.313744 -59.591003 15.632514 0.000000 0.000000 0.000000 0.526238 -0.339852 -1.808170 5.853134 6.398728 13.739631 -5.919491 26.079124 56.411830 111.530507 69.568912 -114.990032 0.000000 0.000000 0.000000 
65.359085 82.366333 245.833176 0.000000 0.000000 0.000000 -5.570107 10.800840 -11.753927 -59.598824 2.882765 5.978314 85.637479 4.953297 -14.195345 11.640475 13.802060 15.703667 0.000000 0.000000 0.000000 -6.285254 11.727798 -11.804548 -16.108608 4.095839 -5.360764 50.808319 19.685368 -3.903436 -24.534975 15.954014 9.197166 0.000000 0.000000 0.000000 -5.185971 13.303677 -11.657211 -0.934449 -0.073928 0.158838 15.480470 5.689808 -2.201288 2.979244 2.367682 -1.197685 0.000000 0.000000 0.000000 -0.236745 0.947281 0.247145 -0.518940 -1.371823 -1.361162 0.000000 0.000000 0.000000 3.206002 0.375979 1.501355 0.168096 10.550626 -13.167454 32.334536 -47.031282 -53.614444 11.316437 -57.676788 14.400800 0.000000 0.000000 0.000000 1.057340 1.338589 -1.378316 5.135206 6.408349 15.686494 -2.459490 24.181901 52.055211 121.099896 67.165273 -124.299484 0.000000 0.000000 0.000000 
65.393036 82.985085 245.212494 0.000000 0.000000 0.000000 -6.073434 9.675777 -11.107341 -60.106553 0.443815 3.786826 88.816331 3.065152 -14.372436 6.944574 9.003787 14.109812 0.000000 0.000000 0.000000 -7.464084 10.982709 -11.557805 -14.758196 8.142883 -4.952491 48.554900 19.566757 -3.977924 -25.255147 14.348790 11.416867 0.000000 0.000000 0.000000 -6.796656 12.208351 -11.588485 -0.964106 -0.083351 0.090111 15.968513 5.796215 -2.997365 2.984340 3.593292 -0.835099 0.000000 0.000000 0.000000 -0.038142 2.626581 0.508510 -1.160408 -1.433424 -1.297461 0.000000 0.000000 0.000000 3.930974 1.817510 1.173783 0.061362 11.005669 -13.274058 36.566534 -52.201387 -47.547716 10.563022 -55.467816 13.389980 0.000000 0.000000 0.000000 1.331826 2.915410 -0.813752 4.643598 6.275313 17.406326 -1.051810 22.239463 49.787458 125.506652 65.333143 -128.704110 0.000000 0.000000 0.000000 
